<?xml version="1.0" encoding="utf-8"?>
<!-- Generator: Adobe Illustrator 17.0.0, SVG Export Plug-In . SVG Version: 6.00 Build 0)  -->
<!DOCTYPE svg PUBLIC "-//W3C//DTD SVG 1.1//EN" "http://www.w3.org/Graphics/SVG/1.1/DTD/svg11.dtd">
<svg version="1.1" id="Layer_1" xmlns="http://www.w3.org/2000/svg" xmlns:xlink="http://www.w3.org/1999/xlink" x="0px" y="0px"
	 width="563.989px" height="64.613px" viewBox="0 0 563.989 64.613" enable-background="new 0 0 563.989 64.613"
	 xml:space="preserve">
<g enable-background="new    ">
	<path fill="#AF2324" d="M20.256,19.322c-1.407,1.408-2.432,2.565-3.075,3.474c-0.643,0.907-1.331,2.208-2.065,3.901
		c-0.551,1.224-0.949,2.52-1.193,3.886c-0.306,1.204-0.459,2.754-0.459,4.65c0,2.673,0.255,4.901,0.765,6.687
		s1.265,3.131,2.265,4.038c0.999,0.908,2.203,1.362,3.61,1.362c1.142,0,2.31-0.418,3.503-1.255c1.193-0.836,2.274-1.933,3.244-3.289
		c0.969-1.356,1.749-2.871,2.341-4.544c0.591-1.673,0.887-3.284,0.887-4.835c0-2.794-0.959-5.711-2.876-8.751
		c-0.714-1.224-1.071-2.06-1.071-2.509c0-0.836,0.459-1.673,1.377-2.509c1.041-0.999,2.234-1.887,3.58-2.662
		s2.407-1.163,3.182-1.163c0.449,0,0.923,0.107,1.423,0.321c0.5,0.214,0.882,0.485,1.147,0.811c0.653,0.674,1.193,1.913,1.622,3.718
		c0.429,1.806,0.643,3.718,0.643,5.737c0,4.814-0.984,9.256-2.953,13.326c-1.969,4.069-4.641,7.293-8.017,9.669
		c-3.376,2.376-7.033,3.564-10.97,3.564c-2.264,0-4.508-0.418-6.731-1.255c-2.224-0.836-4.029-1.958-5.416-3.365
		c-2.346-2.346-3.519-5.416-3.519-9.21c0-2.203,0.428-4.539,1.285-7.008c0.856-2.468,2.035-4.869,3.534-7.205
		c1.5-2.336,3.233-4.473,5.202-6.411c1.969-1.938,3.993-3.467,6.074-4.589c1.897-1.021,3.937-1.836,6.12-2.448
		c2.182-0.612,4.1-0.918,5.752-0.918c2.325,0,3.488,0.357,3.488,1.071c0,0.285-0.245,0.724-0.734,1.315
		c-0.898,0.837-1.678,1.428-2.341,1.774c-0.663,0.348-1.75,0.734-3.259,1.163c-1.632,0.489-2.815,0.933-3.549,1.331
		C22.337,17.594,21.398,18.303,20.256,19.322z"/>
	<path fill="#AF2324" d="M58.832,29.695c0.815-2.305,1.499-4.717,2.05-7.236s0.826-4.452,0.826-5.799
		c0-0.367-0.102-0.551-0.306-0.551c-0.327,0-0.898,0.73-1.714,2.188s-1.499,2.942-2.05,4.452c-1.183,3.325-2.096,6.084-2.739,8.276
		c-0.643,2.193-1.086,4.034-1.331,5.523c-0.245,1.489-0.367,3.009-0.367,4.559c0,1.326,0.148,2.295,0.444,2.907
		c0.295,0.612,0.77,0.918,1.423,0.918c1.122,0,2.376-0.494,3.764-1.484c1.387-0.989,2.642-2.289,3.764-3.901
		c0.876-1.203,1.561-1.805,2.05-1.805c0.632,0,0.949,0.5,0.949,1.499c0,2.183-0.684,4.314-2.05,6.395
		c-1.367,2.081-3.126,3.77-5.278,5.064c-2.153,1.296-4.351,1.943-6.594,1.943c-2.754,0-4.998-0.867-6.731-2.602
		c-1.734-1.733-2.601-3.997-2.601-6.792c0-2.285,0.49-4.962,1.469-8.032s2.29-6.16,3.932-9.271c1.642-3.11,3.442-5.931,5.4-8.461
		c1.958-2.528,3.896-4.467,5.814-5.813c1.183-0.877,2.499-1.315,3.947-1.315c1.102,0,2.101,0.342,2.999,1.025
		c0.897,0.684,1.591,1.637,2.081,2.86c0.489,1.224,0.734,2.581,0.734,4.069c0,3.203-0.627,6.334-1.882,9.395
		c-1.254,3.06-3.004,5.711-5.248,7.955c-1.061,1.081-2.081,1.928-3.06,2.54c-0.979,0.611-1.836,0.918-2.57,0.918
		c-0.714,0-1.071-0.275-1.071-0.826c0-0.307,0.265-0.888,0.795-1.744c0.714-1.122,1.55-2.815,2.509-5.08
		c0.081-0.224,0.173-0.463,0.275-0.719C58.566,30.496,58.689,30.144,58.832,29.695z"/>
	<path fill="#AF2324" d="M82.567,44.046c0.225,1.224,1.02,1.836,2.387,1.836c1.53,0,3.519-0.897,5.967-2.692
		c1.428-1.04,2.387-1.561,2.876-1.561c0.612,0,1.183,0.163,1.713,0.489c0.53,0.327,0.795,0.663,0.795,1.01
		c0,0.367-0.296,0.847-0.887,1.438c-1.082,1.081-2.326,2.137-3.733,3.167c-1.408,1.03-2.765,1.887-4.07,2.57
		c-1.306,0.684-2.611,1.224-3.917,1.621c-1.306,0.398-2.468,0.597-3.488,0.597c-2.55,0-4.59-0.729-6.12-2.188
		c-1.53-1.458-2.295-3.401-2.295-5.829c0-1.855,0.403-3.952,1.209-6.288c0.805-2.335,1.892-4.523,3.258-6.563
		c1.611-2.386,3.59-4.375,5.936-5.966c2.896-1.918,5.671-2.877,8.323-2.877c1.917,0,3.422,0.607,4.514,1.821
		c1.091,1.214,1.637,2.881,1.637,5.003c0,1.651-0.434,3.376-1.3,5.171c-0.867,1.795-2.147,3.519-3.84,5.171
		c-1.387,1.388-2.749,2.469-4.084,3.243c-1.336,0.775-2.504,1.163-3.504,1.163C83.495,44.383,83.036,44.27,82.567,44.046z
		 M82.506,43.067c0.938-0.633,1.652-1.265,2.142-1.897c1.081-1.326,1.917-2.846,2.509-4.56c0.469-1.121,0.836-2.376,1.102-3.764
		c0.265-1.387,0.398-2.682,0.398-3.886c0-1.121-0.235-1.683-0.704-1.683c-0.653,0-1.652,1.438-2.999,4.314
		c-0.795,1.733-1.443,3.463-1.943,5.187c-0.5,1.724-0.75,3.208-0.75,4.452C82.262,41.659,82.343,42.271,82.506,43.067z"/>
	<path fill="#AF2324" d="M108.751,53.898c1.203-0.061,2.3-0.647,3.289-1.759c0.989-1.112,1.484-2.32,1.484-3.626
		c0-0.897-0.296-1.611-0.888-2.143c-0.632-0.632-2.05-1.254-4.253-1.866c-3.244-0.938-5.355-1.988-6.334-3.151
		c-0.918-0.938-1.377-2.061-1.377-3.366c0-2.346,0.852-4.691,2.555-7.037c1.703-2.346,3.88-4.269,6.533-5.768
		c2.651-1.5,5.324-2.249,8.017-2.249c1.305,0,2.529,0.306,3.672,0.918c1.142,0.611,2.05,1.423,2.723,2.433
		c0.673,1.01,1.01,2.106,1.01,3.289c0,1.162-0.367,2.366-1.102,3.61s-1.658,2.279-2.769,3.105c-1.112,0.826-2.167,1.239-3.167,1.239
		c-0.571,0-1.066-0.122-1.484-0.367c-0.418-0.244-0.627-0.51-0.627-0.795c0-0.286,0.082-0.704,0.245-1.255
		c0.448-1.754,0.673-3.284,0.673-4.59c0-1.285-0.388-2.498-1.163-3.641c-1,0.692-1.652,1.242-1.958,1.65
		c-0.775,0.896-1.377,1.915-1.805,3.057c-0.469,1.162-0.704,2.262-0.704,3.301c0,0.733,0.168,1.32,0.506,1.758
		c0.337,0.438,0.889,0.811,1.654,1.117c0.765,0.307,1.922,0.644,3.472,1.011c2.59,0.634,4.415,1.246,5.476,1.838
		c0.245,0.143,0.622,0.439,1.132,0.888c0.774,0.836,1.162,1.918,1.162,3.244c0,1.409-0.439,2.832-1.315,4.271
		c-0.877,1.438-2.234,2.924-4.07,4.454c-1.958,1.652-3.907,2.836-5.844,3.551c-1.938,0.714-4.08,1.071-6.426,1.071
		c-2.264,0-4.044-0.449-5.339-1.347s-1.943-2.121-1.943-3.672c0-1.102,0.428-2.218,1.285-3.351c0.856-1.132,1.922-2.055,3.197-2.769
		s2.524-1.071,3.749-1.071c0.918,0,1.377,0.204,1.377,0.612c0,0.204-0.133,0.541-0.398,1.01c-0.795,1.428-1.193,2.743-1.193,3.947
		C107.803,52.307,108.119,53.123,108.751,53.898z M120.394,12.101l0.644-0.306c2.309-1.265,3.985-1.897,5.028-1.897
		c1.247,0,1.87,0.53,1.87,1.591c0,0.551-0.322,1.066-0.966,1.546s-1.998,1.168-4.061,2.065c-2.554,1.122-4.25,1.774-5.088,1.958
		c-0.572,0.082-0.92,0.122-1.042,0.122c-0.491,0-1.186-0.499-2.084-1.499c-0.327-0.326-0.588-0.592-0.782-0.796
		c-0.194-0.203-0.414-0.438-0.659-0.703c-0.899-0.837-1.553-1.408-1.961-1.714c-0.92-0.755-1.379-1.295-1.379-1.622
		c0-0.469,0.475-0.907,1.425-1.315s1.966-0.612,3.049-0.612c1.164,0,2.166,0.225,3.003,0.674
		C118.228,10.041,119.229,10.878,120.394,12.101z"/>
	<path fill="#AF2324" d="M141.777,36.449l1.844-2.147c1.865-2.065,3.342-3.604,4.433-4.616c1.09-1.012,2.068-1.742,2.935-2.191
		c0.866-0.45,1.747-0.675,2.644-0.675c1.447,0,2.466,0.388,3.057,1.163s0.887,2.121,0.887,4.038c0,0.796-0.082,1.97-0.245,3.52
		c-0.245,2.061-0.367,3.998-0.367,5.813c0,2.04,0.102,3.692,0.306,4.957c0.142,0.775,0.356,1.55,0.643,2.325
		c0.204,0.734,0.306,1.234,0.306,1.499c0,0.327-0.122,0.582-0.367,0.766c-0.632,0.551-1.469,1.03-2.509,1.438
		c-1.041,0.408-1.918,0.612-2.631,0.612c-1.163,0-2.219-0.397-3.167-1.193c-0.949-0.796-1.683-1.897-2.203-3.305
		c-0.521-1.407-0.78-2.999-0.78-4.773c0-1.183,0.122-2.58,0.367-4.191l-0.123-0.123c-0.877,0.979-1.586,1.755-2.126,2.326
		c-0.541,0.571-1.046,1.111-1.515,1.621c-2.285,2.611-4.223,4.968-5.813,7.068c-0.612,0.816-1.173,1.53-1.683,2.142
		c-0.755,0.755-1.612,1.133-2.57,1.133c-1.306,0-2.367-0.49-3.182-1.469c-0.816-0.979-1.224-2.244-1.224-3.795
		c0-0.958,0.112-2.131,0.337-3.519c0.224-1.387,0.525-2.871,0.902-4.452c0.377-1.58,0.826-3.207,1.346-4.88
		c0.521-1.673,1.086-3.264,1.698-4.773c0.938-2.509,2.081-4.468,3.428-5.875c0.918-0.918,2.029-1.377,3.335-1.377
		c2.122,0,3.183,1.377,3.183,4.131c0,2.02-0.422,4.913-1.267,8.682L141.777,36.449z"/>
	<path fill="#AF2324" d="M166.039,52.889c-0.917-0.061-1.753-0.479-2.506-1.254c-0.754-0.816-1.289-1.698-1.604-2.647
		c-0.315-0.948-0.473-2.177-0.473-3.687c0-3.366,0.627-7.165,1.882-11.398c1.254-4.232,2.677-7.297,4.268-9.194
		c0.632-0.796,1.509-1.193,2.631-1.193c1.183,0,2.136,0.541,2.86,1.622c0.724,1.081,1.086,2.498,1.086,4.252
		c0,2.591-0.373,5.625-1.119,9.103c-0.746,3.478-1.793,7.093-3.143,10.846c-0.53,1.511-1.182,2.531-1.956,3.062
		c-0.53,0.326-1.151,0.489-1.864,0.489H166.039z M169.716,22.138c-1.917-0.062-2.876-1.214-2.876-3.458
		c0-1.121,0.28-2.422,0.841-3.9c0.561-1.479,1.198-2.575,1.913-3.29c0.367-0.387,0.739-0.662,1.117-0.826
		c0.377-0.163,0.861-0.244,1.453-0.244c1.02,0,1.77,0.25,2.249,0.749c0.479,0.5,0.719,1.331,0.719,2.494
		c0,1.448-0.25,2.82-0.75,4.115c-0.5,1.296-1.168,2.346-2.004,3.151c-0.836,0.807-1.693,1.209-2.57,1.209H169.716z"/>
	<path fill="#AF2324" d="M194.921,23.056c1.55,0.062,2.785,0.51,3.703,1.347c0.918,0.836,1.377,1.958,1.377,3.365
		c0,1.225-0.352,2.459-1.056,3.702c-0.704,1.245-1.591,2.265-2.662,3.061c-1.071,0.795-2.147,1.193-3.228,1.193
		c-0.633,0-0.949-0.225-0.949-0.674c0-0.163,0.123-0.52,0.367-1.07c0.795-1.347,1.193-2.896,1.193-4.651
		c0-0.877-0.103-1.315-0.306-1.315c-0.286,0-0.693,0.367-1.224,1.102c-0.531,0.734-0.979,1.602-1.347,2.601
		c-0.632,1.571-1.158,3.243-1.576,5.019c-0.418,1.774-0.627,3.273-0.627,4.498c0,1.387,0.209,2.479,0.627,3.273
		c0.418,0.796,1.004,1.193,1.759,1.193c0.693,0,1.622-0.367,2.785-1.102s2.264-1.642,3.305-2.723
		c0.428-0.551,0.806-0.826,1.132-0.826c0.49,0,0.734,0.275,0.734,0.826c0,2.509-0.979,4.783-2.938,6.823
		c-1.346,1.346-2.891,2.433-4.635,3.259s-3.31,1.239-4.697,1.239c-2.428,0-4.447-0.766-6.059-2.295
		c-1.612-1.53-2.417-3.458-2.417-5.783s0.515-4.769,1.545-7.328c1.03-2.561,2.438-4.992,4.223-7.298
		c1.785-2.305,3.81-4.232,6.074-5.783c1.632-1.102,3.223-1.652,4.773-1.652H194.921z"/>
	<path fill="#AF2324" d="M224.164,43.679v0.123l-0.122-0.123c-1.897,2.224-3.637,4.044-5.217,5.462
		c-1.581,1.418-3.04,2.483-4.375,3.197c-1.336,0.714-2.565,1.071-3.687,1.071c-2.285,0-4.172-0.765-5.661-2.295
		c-1.489-1.53-2.234-3.468-2.234-5.813c0-1.448,0.367-3.162,1.102-5.141s1.744-3.917,3.029-5.813
		c2.142-3.101,4.834-5.732,8.078-7.895c3.345-2.224,6.568-3.335,9.669-3.335c2.611,0,4.758,0.535,6.441,1.606
		c1.683,1.07,2.524,2.422,2.524,4.054c0,1.204-0.418,2.479-1.254,3.825c1.102,0,1.794,0.117,2.081,0.352
		c0.285,0.234,0.428,0.78,0.428,1.637c0-0.081-0.051,0.337-0.153,1.255c-0.123,2.02-0.184,3.906-0.184,5.661
		c0,0.918,0.01,1.611,0.031,2.08c0.02,0.47,0.061,1.01,0.122,1.622c0.062,0.611,0.123,1.102,0.184,1.469
		c0.163,0.959,0.428,1.907,0.795,2.846c-1.224,1.203-2.397,2.086-3.519,2.646c-1.122,0.561-2.264,0.842-3.427,0.842
		c-3.142,0-4.712-2.632-4.712-7.895C224.103,44.505,224.123,44.026,224.164,43.679z M226,36.672l-0.581,0.184
		c-1.469,0.408-2.53,0.612-3.183,0.612c-0.795,0-1.193-0.204-1.193-0.612c0-0.143,0.163-0.521,0.49-1.132
		c1.142-1.733,1.713-3.366,1.713-4.896c0-0.876-0.153-1.677-0.459-2.401c-0.306-0.724-0.643-1.086-1.01-1.086
		c-0.326,0-0.826,0.347-1.499,1.04c-1.897,2.061-3.402,4.172-4.513,6.334c-1.112,2.162-1.668,4.09-1.668,5.783
		c0,1.122,0.229,2.05,0.688,2.784s1.035,1.102,1.729,1.102c0.591,0,1.698-0.632,3.32-1.897c1.622-1.265,3.442-2.938,5.462-5.018
		l0.826-0.674L226,36.672z"/>
	<path fill="#AF2324" d="M256.214,47.564l7.282-24.57c0.53-1.896,1.071-3.232,1.622-4.008c0.347-0.448,0.806-0.826,1.377-1.133
		v-0.122h-0.428c-0.592,0-1.826,0.337-3.703,1.01c-2.061,0.715-3.478,1.071-4.253,1.071c-0.408,0-0.688-0.071-0.841-0.215
		c-0.153-0.142-0.229-0.387-0.229-0.734c0-0.815,0.229-1.708,0.688-2.677s1.055-1.841,1.79-2.616s1.489-1.326,2.265-1.652
		c1.774-0.693,4.181-1.234,7.221-1.622c3.039-0.387,6.344-0.581,9.914-0.581c3.835,0,7.099,0.602,9.792,1.806
		c2.693,1.203,4.738,2.988,6.136,5.354c1.396,2.366,2.096,5.222,2.096,8.567c0,3.366-0.669,6.758-2.004,10.174
		c-1.337,3.417-3.106,6.278-5.31,8.583c-5.161,5.467-12.056,8.2-20.685,8.2c-2.774,0-5.309-0.225-7.604-0.673
		c-2.295-0.449-3.81-1-4.544-1.652c-0.469-0.367-0.704-0.907-0.704-1.622C256.092,48.268,256.132,47.973,256.214,47.564z
		 M276.892,17.119l-6.144,23.255c-0.041,0.144-0.122,0.521-0.245,1.133c-0.367,1.611-0.785,2.855-1.254,3.732
		c-0.327,0.673-0.847,1.449-1.561,2.325c0.591,0.042,1.254,0.062,1.989,0.062c1.775,0,3.253-0.117,4.437-0.352
		c1.183-0.234,2.284-0.638,3.304-1.209c1.02-0.57,1.978-1.305,2.876-2.203c1.693-1.733,2.994-3.743,3.902-6.027
		c0.907-2.285,1.361-4.763,1.361-7.436c0-2.448-0.367-4.671-1.103-6.671c-0.734-1.999-1.756-3.574-3.062-4.728
		C280.087,17.849,278.587,17.222,276.892,17.119z"/>
	<path fill="#AF2324" d="M320.279,21.801c3.039,0,4.56,0.357,4.56,1.071c0,0.816-0.684,1.255-2.051,1.315
		c-1.652,0.103-3.192,0.571-4.62,1.408c-1.428,0.836-2.697,1.979-3.81,3.427c-1.111,1.448-1.979,3.08-2.601,4.896
		s-0.934,3.733-0.934,5.753c0,2.224,0.521,4.014,1.561,5.37c1.041,1.356,2.397,2.034,4.07,2.034c1.55,0,2.906-0.796,4.069-2.387
		c1.162-1.591,1.744-3.447,1.744-5.568c0-1.734-0.362-3.361-1.087-4.881c-0.724-1.52-1.779-2.8-3.166-3.84
		c-0.593-0.469-0.888-0.806-0.888-1.01c0-0.285,0.418-0.724,1.255-1.315c0.938-0.633,1.988-1.163,3.151-1.592
		c1.162-0.428,2.142-0.643,2.938-0.643c0.918,0,1.79,0.24,2.616,0.72s1.555,1.162,2.188,2.05c0.632,0.888,1.117,1.907,1.453,3.06
		c0.337,1.152,0.505,2.382,0.505,3.688c0,2.162-0.408,4.299-1.224,6.41c-0.816,2.111-1.887,3.82-3.213,5.125
		c-1.714,1.652-3.779,3.004-6.196,4.055s-4.717,1.575-6.899,1.575c-2.122,0-4.229-0.367-6.319-1.102s-3.748-1.702-4.972-2.906
		c-1.633-1.632-2.448-3.947-2.448-6.946c0-2.366,0.581-4.732,1.744-7.099s2.738-4.513,4.728-6.44s4.182-3.447,6.579-4.56
		C315.409,22.357,317.831,21.801,320.279,21.801z"/>
	<path fill="#AF2324" d="M351.297,29.695c0.815-2.305,1.499-4.717,2.05-7.236s0.826-4.452,0.826-5.799
		c0-0.367-0.103-0.551-0.306-0.551c-0.327,0-0.898,0.73-1.714,2.188s-1.499,2.942-2.05,4.452c-1.184,3.325-2.096,6.084-2.738,8.276
		c-0.643,2.193-1.087,4.034-1.331,5.523c-0.245,1.489-0.367,3.009-0.367,4.559c0,1.326,0.147,2.295,0.443,2.907
		s0.77,0.918,1.423,0.918c1.122,0,2.376-0.494,3.764-1.484c1.387-0.989,2.642-2.289,3.764-3.901c0.877-1.203,1.561-1.805,2.05-1.805
		c0.632,0,0.948,0.5,0.948,1.499c0,2.183-0.684,4.314-2.05,6.395c-1.367,2.081-3.126,3.77-5.278,5.064
		c-2.152,1.296-4.35,1.943-6.594,1.943c-2.754,0-4.998-0.867-6.731-2.602c-1.734-1.733-2.601-3.997-2.601-6.792
		c0-2.285,0.489-4.962,1.469-8.032c0.979-3.07,2.289-6.16,3.932-9.271c1.642-3.11,3.442-5.931,5.4-8.461
		c1.958-2.528,3.896-4.467,5.813-5.813c1.183-0.877,2.499-1.315,3.947-1.315c1.102,0,2.101,0.342,2.999,1.025
		c0.897,0.684,1.591,1.637,2.08,2.86c0.49,1.224,0.734,2.581,0.734,4.069c0,3.203-0.627,6.334-1.882,9.395
		c-1.254,3.06-3.004,5.711-5.247,7.955c-1.061,1.081-2.081,1.928-3.06,2.54c-0.979,0.611-1.836,0.918-2.57,0.918
		c-0.715,0-1.071-0.275-1.071-0.826c0-0.307,0.265-0.888,0.796-1.744c0.714-1.122,1.55-2.815,2.509-5.08
		c0.081-0.224,0.173-0.463,0.275-0.719C351.032,30.496,351.155,30.144,351.297,29.695z"/>
	<path fill="#AF2324" d="M384.824,21.801c3.039,0,4.56,0.357,4.56,1.071c0,0.816-0.684,1.255-2.051,1.315
		c-1.652,0.103-3.192,0.571-4.62,1.408c-1.428,0.836-2.697,1.979-3.81,3.427c-1.111,1.448-1.979,3.08-2.601,4.896
		s-0.934,3.733-0.934,5.753c0,2.224,0.521,4.014,1.561,5.37c1.041,1.356,2.397,2.034,4.07,2.034c1.55,0,2.906-0.796,4.069-2.387
		c1.162-1.591,1.744-3.447,1.744-5.568c0-1.734-0.362-3.361-1.087-4.881c-0.724-1.52-1.779-2.8-3.166-3.84
		c-0.593-0.469-0.888-0.806-0.888-1.01c0-0.285,0.418-0.724,1.255-1.315c0.938-0.633,1.988-1.163,3.151-1.592
		c1.162-0.428,2.142-0.643,2.938-0.643c0.918,0,1.79,0.24,2.616,0.72s1.555,1.162,2.188,2.05c0.632,0.888,1.117,1.907,1.453,3.06
		c0.337,1.152,0.505,2.382,0.505,3.688c0,2.162-0.408,4.299-1.224,6.41c-0.816,2.111-1.887,3.82-3.213,5.125
		c-1.714,1.652-3.779,3.004-6.196,4.055s-4.717,1.575-6.899,1.575c-2.122,0-4.229-0.367-6.319-1.102s-3.748-1.702-4.972-2.906
		c-1.632-1.632-2.448-3.947-2.448-6.946c0-2.366,0.582-4.732,1.744-7.099c1.163-2.366,2.739-4.513,4.728-6.44
		c1.989-1.928,4.182-3.447,6.579-4.56C379.953,22.357,382.376,21.801,384.824,21.801z"/>
	<path fill="#AF2324" d="M413.91,32.534l0.95-1.784c0.899-1.579,1.732-2.897,2.499-3.954s1.445-1.831,2.038-2.323
		c0.593-0.493,1.299-0.893,2.116-1.2c0.675-0.267,1.41-0.4,2.208-0.4c1.553,0,2.928,0.459,4.123,1.377
		c1.196,0.918,2.116,2.233,2.76,3.947s0.966,3.683,0.966,5.905c0,3.203-0.72,6.278-2.158,9.226
		c-1.438,2.948-3.326,5.329-5.662,7.145c-2.337,1.815-4.749,2.724-7.238,2.724c-1.449,0-2.658-0.307-3.627-0.918
		c-0.97-0.612-1.862-1.664-2.679-3.153l-0.208,0.521l-0.184,0.673c-1.326,4.264-2.382,7.399-3.167,9.409
		c-0.785,2.009-1.464,3.238-2.034,3.688c-0.449,0.428-0.97,0.643-1.561,0.643c-1.163,0-2.07-0.571-2.724-1.714
		c-0.652-1.143-0.979-2.744-0.979-4.804c0-2.244,0.244-4.937,0.734-8.078c0.489-3.141,1.167-6.344,2.034-9.607
		s1.829-6.231,2.887-8.904c0.69-1.632,1.453-3.06,2.286-4.284c0.834-1.224,1.626-2.111,2.379-2.662
		c0.549-0.326,1.139-0.489,1.769-0.489c0.936,0,1.657,0.257,2.166,0.77c0.509,0.514,0.764,1.242,0.764,2.187
		c0,0.8-0.082,1.683-0.245,2.647c-0.122,0.944-0.234,2.031-0.337,3.264L413.91,32.534z M411.589,45.576
		c0.57,1.673,1.652,2.509,3.243,2.509c1.121,0,2.167-0.505,3.137-1.515c0.968-1.01,1.744-2.376,2.325-4.1s0.872-3.534,0.872-5.432
		c0-1.51-0.118-2.815-0.353-3.917s-0.494-1.652-0.779-1.652c-0.205,0-0.725,0.541-1.561,1.622c-0.837,1.082-1.673,2.336-2.51,3.764
		c-1.713,2.774-3.009,5.223-3.886,7.344C411.854,44.75,411.691,45.209,411.589,45.576z"/>
	<path fill="#AF2324" d="M451.358,29.695c0.815-2.305,1.499-4.717,2.05-7.236s0.826-4.452,0.826-5.799
		c0-0.367-0.103-0.551-0.306-0.551c-0.327,0-0.898,0.73-1.714,2.188s-1.499,2.942-2.05,4.452c-1.184,3.325-2.096,6.084-2.738,8.276
		c-0.643,2.193-1.087,4.034-1.331,5.523c-0.245,1.489-0.367,3.009-0.367,4.559c0,1.326,0.147,2.295,0.443,2.907
		s0.77,0.918,1.423,0.918c1.122,0,2.376-0.494,3.764-1.484c1.387-0.989,2.642-2.289,3.764-3.901c0.877-1.203,1.561-1.805,2.05-1.805
		c0.632,0,0.948,0.5,0.948,1.499c0,2.183-0.684,4.314-2.05,6.395c-1.367,2.081-3.126,3.77-5.278,5.064
		c-2.152,1.296-4.35,1.943-6.594,1.943c-2.754,0-4.998-0.867-6.731-2.602c-1.734-1.733-2.601-3.997-2.601-6.792
		c0-2.285,0.489-4.962,1.469-8.032c0.979-3.07,2.289-6.16,3.932-9.271c1.642-3.11,3.442-5.931,5.4-8.461
		c1.958-2.528,3.896-4.467,5.813-5.813c1.183-0.877,2.499-1.315,3.947-1.315c1.102,0,2.101,0.342,2.999,1.025
		c0.897,0.684,1.591,1.637,2.08,2.86c0.49,1.224,0.734,2.581,0.734,4.069c0,3.203-0.627,6.334-1.882,9.395
		c-1.254,3.06-3.004,5.711-5.247,7.955c-1.061,1.081-2.081,1.928-3.06,2.54c-0.979,0.611-1.836,0.918-2.57,0.918
		c-0.715,0-1.071-0.275-1.071-0.826c0-0.307,0.265-0.888,0.796-1.744c0.714-1.122,1.55-2.815,2.509-5.08
		c0.081-0.224,0.173-0.463,0.275-0.719C451.092,30.496,451.215,30.144,451.358,29.695z"/>
	<path fill="#AF2324" d="M485.436,43.679v0.123l-0.122-0.123c-1.897,2.224-3.637,4.044-5.217,5.462
		c-1.581,1.418-3.04,2.483-4.376,3.197s-2.565,1.071-3.688,1.071c-2.284,0-4.172-0.765-5.66-2.295
		c-1.489-1.53-2.233-3.468-2.233-5.813c0-1.448,0.367-3.162,1.102-5.141s1.744-3.917,3.029-5.813
		c2.142-3.101,4.834-5.732,8.077-7.895c3.346-2.224,6.568-3.335,9.669-3.335c2.611,0,4.759,0.535,6.441,1.606
		c1.683,1.07,2.524,2.422,2.524,4.054c0,1.204-0.418,2.479-1.255,3.825c1.102,0,1.795,0.117,2.081,0.352
		c0.285,0.234,0.429,0.78,0.429,1.637c0-0.081-0.052,0.337-0.153,1.255c-0.122,2.02-0.184,3.906-0.184,5.661
		c0,0.918,0.01,1.611,0.03,2.08c0.021,0.47,0.062,1.01,0.123,1.622c0.061,0.611,0.122,1.102,0.184,1.469
		c0.163,0.959,0.428,1.907,0.795,2.846c-1.224,1.203-2.396,2.086-3.519,2.646s-2.265,0.842-3.427,0.842
		c-3.142,0-4.713-2.632-4.713-7.895C485.374,44.505,485.395,44.026,485.436,43.679z M487.272,36.672l-0.581,0.184
		c-1.469,0.408-2.53,0.612-3.183,0.612c-0.795,0-1.193-0.204-1.193-0.612c0-0.143,0.163-0.521,0.49-1.132
		c1.142-1.733,1.713-3.366,1.713-4.896c0-0.876-0.152-1.677-0.459-2.401c-0.306-0.724-0.643-1.086-1.01-1.086
		c-0.326,0-0.826,0.347-1.499,1.04c-1.897,2.061-3.401,4.172-4.514,6.334c-1.111,2.162-1.667,4.09-1.667,5.783
		c0,1.122,0.229,2.05,0.688,2.784s1.035,1.102,1.729,1.102c0.592,0,1.698-0.632,3.32-1.897c1.621-1.265,3.442-2.938,5.461-5.018
		l0.826-0.674L487.272,36.672z"/>
	<path fill="#AF2324" d="M515.75,28.961l-1.316,0.49c-4.814,1.632-8.363,2.447-10.647,2.447c-1.551,0-2.326-0.683-2.326-2.05
		c0-0.755,0.229-1.591,0.688-2.509s1.005-1.693,1.638-2.326c0.774-0.795,1.499-1.351,2.172-1.667s1.52-0.475,2.54-0.475
		c0.347,0,0.739,0.005,1.178,0.016c0.438,0.01,0.943,0.025,1.515,0.046c4.039,0.163,6.747,0.28,8.124,0.352s2.473,0.188,3.289,0.352
		c0.693,0.144,1.239,0.394,1.637,0.75c0.398,0.357,0.597,0.75,0.597,1.178c0,1.306-3.569,7.242-10.709,17.809l-1.132,1.683h1.438
		c2.611,0,5.12-0.479,7.527-1.438c0.612-0.204,0.989-0.307,1.132-0.307c0.633,0,0.949,0.541,0.949,1.622
		c0,1.774-0.475,3.392-1.423,4.85c-0.949,1.459-2.265,2.601-3.947,3.427s-3.534,1.239-5.554,1.239c-2.509,0-4.789-0.225-6.839-0.673
		c-2.05-0.449-3.667-1.076-4.85-1.882c-1.184-0.806-1.774-1.708-1.774-2.708c0-0.53,0.249-1.157,0.749-1.882
		c0.5-0.724,1.504-1.871,3.015-3.442c0.244-0.306,0.805-0.928,1.683-1.866l1.01-1.071l1.07-1.254l0.734-0.888l0.766-0.796
		c1.754-1.938,3.232-3.672,4.437-5.201c0.429-0.53,0.806-1.025,1.132-1.484s0.867-1.198,1.622-2.218L515.75,28.961z"/>
	<path fill="#AF2324" d="M547.28,31.593l0.398-1.316c0.53-2.039,1.337-3.61,2.419-4.712c0.694-0.693,1.49-1.265,2.389-1.713
		c0.898-0.449,1.716-0.674,2.451-0.674c1.347,0,2.021,0.571,2.021,1.714c0,0.571-0.185,1.459-0.552,2.662
		c-0.367,1.204-0.853,2.565-1.455,4.085c-0.602,1.52-1.307,3.188-2.113,5.003s-1.7,3.682-2.681,5.6
		c-1.776,3.631-3.573,6.7-5.39,9.21c-1.308,1.795-2.636,3.386-3.982,4.773c-1.348,1.387-2.762,2.631-4.242,3.732
		s-2.88,1.933-4.196,2.494c-1.317,0.561-2.527,0.841-3.63,0.841c-0.919,0-1.378-0.397-1.378-1.193c0-0.632,0.143-1.387,0.429-2.264
		c0.286-0.878,0.685-1.704,1.195-2.479c0.552-0.734,1.247-1.388,2.085-1.958c1.062-0.734,2.625-1.571,4.689-2.51
		c-1.227-2.06-2.156-3.691-2.79-4.896c-0.634-1.203-1.328-2.702-2.085-4.498c-1.676-3.978-2.514-7.588-2.514-10.832
		c0-2.468,0.306-4.477,0.918-6.027c0.551-1.326,1.561-2.265,3.029-2.815c1.183-0.469,2.243-0.703,3.182-0.703
		c1.326,0,2.219,0.505,2.678,1.515s0.861,3.371,1.208,7.083c0.37,3.978,0.966,7.905,1.787,11.78
		c0.144,0.592,0.308,1.408,0.493,2.448h0.122c0.551-1.203,1.153-2.662,1.808-4.376c0.204-0.489,0.919-2.295,2.144-5.416
		C546.411,34.275,546.932,32.755,547.28,31.593z"/>
</g>
</svg>
